<svg width="12" height="16" viewBox="0 0 12 16" fill="none" xmlns="http://www.w3.org/2000/svg">
<path fill-rule="evenodd" clip-rule="evenodd" d="M3.08496 5.79456C3.08496 4.18699 4.39277 2.87915 6.00034 2.87915C7.60787 2.87915 8.91568 4.18699 8.91568 5.79456C8.91568 7.40212 7.60787 8.70996 6.00034 8.70996C4.3928 8.70996 3.08496 7.40212 3.08496 5.79456ZM4.12846 5.79456C4.12846 6.82674 4.96815 7.66646 6.00034 7.66646C7.03249 7.66646 7.87221 6.82674 7.87221 5.79456C7.87221 4.76237 7.03249 3.92265 6.00034 3.92265C4.96818 3.92265 4.12846 4.76237 4.12846 5.79456Z" fill="#B0B0B0"/>
<path fill-rule="evenodd" clip-rule="evenodd" d="M0.206055 5.79456C0.206055 2.59944 2.80549 0 6.00065 0C9.19578 0 11.7952 2.59944 11.7952 5.79456C11.7952 9.75981 6.60965 15.581 6.38887 15.8269C6.18187 16.0575 5.81981 16.0579 5.61243 15.8269C5.39165 15.581 0.206055 9.75981 0.206055 5.79456ZM1.24955 5.79462C1.24955 8.516 4.25543 12.606 6.00065 14.679C7.74631 12.6053 10.7517 8.51609 10.7517 5.79459C10.7517 3.17481 8.62043 1.0435 6.00065 1.0435C3.38087 1.0435 1.24955 3.17481 1.24955 5.79462Z" fill="#B0B0B0"/>
</svg>
